<svg xmlns="http://www.w3.org/2000/svg" width="29" height="39" fill="none" viewBox="0 0 29 39">
  <path fill="#43FFF4" d="M22.845 6.508C19.157 3.228 14.012 1.265 8.356.984H0v37.593h8.362c5.399-.303 10.444-2.265 14.208-5.546 3.98-3.448 6.172-8.167 6.172-13.261 0-5.224-2.038-9.814-5.897-13.262zm-5.933 20.989L3.235 8.409v-4.09h6.316c2.543.101 5.043.732 7.36 1.858v21.32zm-6.515-3.693H3.235v-9.712l7.162 9.712zm-7.162 2.944h9.339l4.715 6.418a18.309 18.309 0 01-7.743 2.274h-6.31v-8.692zM19.948 8.142a14.364 14.364 0 013.988 5.186 15.385 15.385 0 011.384 6.55c0 4.93-2.192 8.813-5.372 11.471V8.142z"/>
</svg>
