<svg xmlns="http://www.w3.org/2000/svg" viewBox="0 0 456.86 440.22"><defs><style>.cls-1{fill:none;stroke:#43fff4;stroke-miterlimit:10;stroke-width:5px;}</style></defs><g id="Capa_2" data-name="Capa 2"><g id="Capa_1-2" data-name="Capa 1"><polyline class="cls-1" points="2.5 50.56 88.67 98.25 174.29 50.56"/><polygon class="cls-1" points="174.29 154.86 88.67 202.55 2.5 154.86 2.58 50.55 88.19 2.86 174.37 50.55 174.29 154.86"/><line class="cls-1" x1="88.67" y1="98.25" x2="88.67" y2="202.55"/><polyline class="cls-1" points="282.49 50.56 368.67 98.25 454.28 50.56"/><polygon class="cls-1" points="454.28 154.86 368.67 202.55 282.49 154.86 282.57 50.55 368.19 2.86 454.36 50.55 454.28 154.86"/><line class="cls-1" x1="368.66" y1="202.55" x2="368.66" y2="98.25"/><polyline class="cls-1" points="146.4 285.38 232.57 333.07 318.19 285.38"/><polygon class="cls-1" points="318.19 389.68 232.57 437.37 146.4 389.68 146.48 285.36 232.09 237.67 318.27 285.36 318.19 389.68"/><line class="cls-1" x1="232.57" y1="333.07" x2="232.57" y2="437.37"/><circle class="cls-1" cx="232.57" cy="186.93" r="25.1"/><line class="cls-1" x1="174.29" y1="154.86" x2="218.87" y2="165.91"/><line class="cls-1" x1="282.49" y1="154.86" x2="246.28" y2="165.91"/><line class="cls-1" x1="232.57" y1="212.03" x2="232.02" y2="237.69"/></g></g></svg>